<?xml version="1.0" encoding="UTF-8"?>
<svg width="254.68" height="254.67" version="1.1" viewBox="0 0 1044.2 1044.2" xml:space="preserve" xmlns="http://www.w3.org/2000/svg">
  <defs>
    
    <linearGradient id="b" x1="-64.606" x2="979.55" y1="191.06" y2="191.06" gradientTransform="rotate(-59.997 776.47 300.61)" gradientUnits="userSpaceOnUse"><stop stop-color="#56bef0" offset="0"/><stop stop-color="#5a9cfa" offset=".33"/><stop stop-color="#6d5afa" offset=".67"/><stop stop-color="#9256f0" offset="1"/></linearGradient>
  </defs>
  <path d="m386.98 17.784a522.08 522.08 0 0 1 639.4 369.19 522.08 522.08 0 0 1-369.2 639.4 522.08 522.08 0 0 1-639.4-369.2 522.08 522.08 0 0 1 369.19-639.4z" fill="url(#b)" style="mix-blend-mode:normal"/>
  <path d="m541.21 929.3v-181h313.49zm-351.84-181h313.86v181.21zm150.17-390.01-154.46-60.07 287.32-165.88zm360.63 0.973-135.97-231.24 294.67 170.14zm-6.682 63.566 169.03 287.49h-309.86zm-201.9 287.49h-314.98l170.74-290.39zm-111.21-346.54 139.2-236.74 139.19 236.74zm141.73 322.6-141.36-284.62h280.77zm362.23-355.51v341.6l-164.65-280.02 164.59-63.377c0.035 0.597 0.06 1.195 0.06 1.798zm-724.58 0c0-0.578 0.027-1.154 0.059-1.728l160.24 62.317-160.3 272.62zm-33.879 405.68c5.47 15.174 16.15 28.264 30.492 36.545l331.09 191.15c10.67 6.16 22.63 9.24 34.593 9.24 11.96 0 23.924-3.08 34.593-9.24l331.09-191.15c21.337-12.318 34.592-35.277 34.592-59.916v-382.3c0-12.792-3.58-25.128-10.004-35.761a18.258 18.258 0 0 0-1.043-1.672c-5.87-9.123-13.873-16.899-23.545-22.484l-331.09-191.15c-11.37-6.566-24.208-9.631-36.95-9.2-0.037 0-0.074-3e-3 -0.112-3e-3 -0.61 0-1.214 0.04-1.814 0.096a69.105 69.105 0 0 0-30.31 9.105l-331.09 191.15c-9.67 5.584-17.674 13.357-23.541 22.477a19.4 19.4 0 0 0-1.074 1.72c-6.406 10.624-9.977 22.944-9.977 35.72v382.3c0 7.31 1.175 14.468 3.372 21.248a19.3 19.3 0 0 0 0.728 2.125" fill="#fff"/>
</svg>
